<?xml version="1.0" encoding="iso-8859-1"?>
<!-- Uploaded to: SVG Repo, www.svgrepo.com, Generator: SVG Repo Mixer Tools -->
<svg fill="#000000" height="800px" width="800px" version="1.1" id="Layer_1" xmlns="http://www.w3.org/2000/svg" xmlns:xlink="http://www.w3.org/1999/xlink" 
	 viewBox="0 0 330.001 330.001" xml:space="preserve">
<g id="XMLID_241_">
	<path id="XMLID_242_" d="M315.001,0.001h-90.023c-8.284,0-15,6.716-15,15v15H165c-8.284,0-15,6.716-15,15v105h-30V130
		c0-8.284-6.716-15-15-15H15c-8.284,0-15,6.716-15,15v70c0,8.284,6.716,15,15,15h90c8.284,0,15-6.716,15-15v-19.999h30v105
		c0,8.284,6.716,15,15,15h44.978v15c0,8.284,6.716,15,15,15h90.023c8.284,0,15-6.716,15-15v-60c0-8.284-6.716-15-15-15h-90.023
		c-8.284,0-15,6.716-15,15v15H180v-90h29.978v15c0,8.284,6.716,15,15,15h90.023c8.284,0,15-6.716,15-15v-60c0-8.284-6.716-15-15-15
		h-90.023c-8.284,0-15,6.716-15,15v15H180v-90h29.978v15c0,8.284,6.716,15,15,15h90.023c8.284,0,15-6.716,15-15v-60
		C330.001,6.716,323.285,0.001,315.001,0.001z"/>
</g>
</svg>